<svg xmlns="http://www.w3.org/2000/svg" width="600" height="600" viewBox="0 0 600 600">
<defs>
<radialGradient id="bg" cx="50%" cy="38%" r="75%"><stop offset="0" stop-color="#fff8fa"/><stop offset="1" stop-color="#f9dbe6"/></radialGradient>
<linearGradient id="oro" x1="0" x2="1"><stop offset="0" stop-color="#e9cf9a"/><stop offset=".5" stop-color="#d4af37"/><stop offset="1" stop-color="#e9cf9a"/></linearGradient>
<linearGradient id="rosa" x1="0" y1="0" x2="0" y2="1"><stop offset="0" stop-color="#f6c2d6"/><stop offset="1" stop-color="#ec9fc0"/></linearGradient>
<linearGradient id="rosaF" x1="0" y1="0" x2="0" y2="1"><stop offset="0" stop-color="#f079a8"/><stop offset="1" stop-color="#d9558d"/></linearGradient>
<symbol id="rosaFlor" viewBox="-40 -40 80 80"><circle r="36" fill="#e2578a"/><circle r="27" fill="#ec6e9a"/><path d="M-18 4a18 18 0 0 1 30-14M14 -6a14 14 0 0 1-22 16M-8 8a9 9 0 0 1 12-10" fill="none" stroke="#b83a68" stroke-width="4" stroke-linecap="round"/></symbol>
<symbol id="hoja" viewBox="-30 -15 60 30"><path d="M-28 0Q0-18 28 0Q0 18-28 0Z" fill="#8fbf9a"/><path d="M-24 0H24" stroke="#6fa07c" stroke-width="2"/></symbol>
</defs>
<rect width="600" height="600" fill="url(#bg)"/>
<circle cx="90" cy="110" r="70" fill="#f6c9d8" opacity=".35"/><circle cx="530" cy="500" r="90" fill="#e9cf9a" opacity=".25"/>
<g fill="#d4af37" opacity=".55"><circle cx="70" cy="300" r="5"/><circle cx="520" cy="120" r="6"/><circle cx="460" cy="70" r="4"/><circle cx="120" cy="520" r="5"/><circle cx="545" cy="300" r="4"/></g>
<g fill="#f0aecb" opacity=".8"><circle cx="160" cy="70" r="5"/><circle cx="420" cy="540" r="6"/><circle cx="40" cy="430" r="4"/><circle cx="560" cy="200" r="5"/></g>
<ellipse cx="300" cy="520" rx="200" ry="22" fill="#d996ae" opacity=".22"/>

<rect x="175" y="170" width="54" height="180" rx="14" fill="#b86f2c"/><rect x="190" y="120" width="24" height="60" rx="6" fill="#b86f2c"/><rect x="186" y="112" width="32" height="14" rx="4" fill="url(#oro)"/>
<rect x="175" y="240" width="54" height="56" fill="#fff8f0"/><path d="M190 268h24" stroke="#c8457f" stroke-width="6"/>
<rect x="250" y="190" width="54" height="160" rx="14" fill="#7a4524"/><rect x="265" y="140" width="24" height="60" rx="6" fill="#7a4524"/><rect x="261" y="132" width="32" height="14" rx="4" fill="url(#oro)"/>
<rect x="250" y="250" width="54" height="50" fill="#fff8f0"/><path d="M265 276h24" stroke="#3d4a6b" stroke-width="6"/>
<path d="M330 330q0-50 60-50t60 50z" fill="#f2c94c"/><path d="M345 305q45-14 90 0" stroke="#e0a92c" stroke-width="6" fill="none"/>
<path d="M400 150l-22 20 22 110 22-110z" fill="#3d4a6b"/><path d="M386 140h28l-6 22h-16z" fill="#2f3a57"/>
<g fill="#e9cf9a"><circle cx="400" cy="200" r="4"/><circle cx="398" cy="228" r="4"/><circle cx="402" cy="256" r="4"/></g>
<path d="M120 330h360l-20 170H140Z" fill="#d9b38c"/><path d="M120 330h360v30H120Z" fill="#c79d73"/>
<g stroke="#b88a5f" stroke-width="4"><path d="M136 410h328M141 460h318"/></g>
<rect x="210" y="380" width="180" height="60" rx="10" fill="#fff8f0"/>
<path d="M250 402h100" stroke="#4a3a40" stroke-width="5" stroke-linecap="round"/><path d="M265 418h70" stroke="#d4af37" stroke-width="4" stroke-linecap="round"/>

</svg>
